#N canvas 351 22 922 750 10;
#X obj 130 543 line~;
#X obj 82 543 osc~;
#X obj 82 617 dac~;
#X obj 82 377 mtof;
#X obj 264 201 pack 0 25;
#X obj 340 178 bang;
#X msg 340 222 0 250;
#X text 244 175 on;
#X text 373 178 off;
#X obj 264 179 / 199;
#X obj 53 -46 r bang;
#X obj 82 576 *~;
#X obj 54 45 t l l;
#X obj 111 75 list length;
#X obj 111 134 random;
#X obj 54 162 list split;
#X obj 82 207 list split 1;
#X obj 53 -17 bng 15 250 50 0 empty empty empty 17 7 0 10 -262144 -1
-1;
#X msg 54 12 list 60 62 64 67 69 72;
#X obj 182 542 phasor~;
#X obj 182 575 *~;
#X obj 236 542 line~;
#X floatatom 180 439 1 0 0 0 - - -;
#X obj 82 486 spigot;
#X obj 135 486 spigot 1;
#X obj 180 464 == 0;
#X floatatom 385 436 1 0 0 0 - - -;
#X obj 264 485 spigot;
#X obj 340 483 spigot 1;
#X obj 385 461 == 0;
#X obj 180 376 r waveShape;
#X msg 264 141 100;
#X obj 340 200 delay 50;
#X msg 136 289 1;
#X msg 97 290 0;
#X obj 97 320 * 12;
#X obj 82 344 +;
#X obj 179 321 loadbang;
#X floatatom 180 401 5 0 0 0 - - -;
#X msg 179 344 1;
#X obj 111 105 t b f;
#X obj 97 239 random 4;
#X obj 97 263 moses 3;
#X msg 213 11 seed 8;
#X obj 213 -23 loadbang;
#X connect 0 0 11 1;
#X connect 1 0 11 0;
#X connect 3 0 23 0;
#X connect 3 0 24 0;
#X connect 4 0 27 0;
#X connect 4 0 28 0;
#X connect 5 0 32 0;
#X connect 6 0 27 0;
#X connect 6 0 28 0;
#X connect 9 0 4 0;
#X connect 10 0 17 0;
#X connect 11 0 2 0;
#X connect 11 0 2 1;
#X connect 12 0 15 0;
#X connect 12 1 13 0;
#X connect 13 0 40 0;
#X connect 14 0 15 1;
#X connect 15 1 16 0;
#X connect 16 0 36 0;
#X connect 17 0 18 0;
#X connect 17 0 31 0;
#X connect 17 0 41 0;
#X connect 18 0 12 0;
#X connect 19 0 20 0;
#X connect 20 0 2 0;
#X connect 20 0 2 1;
#X connect 21 0 20 1;
#X connect 22 0 23 1;
#X connect 22 0 25 0;
#X connect 23 0 1 0;
#X connect 24 0 19 0;
#X connect 25 0 24 1;
#X connect 26 0 27 1;
#X connect 26 0 29 0;
#X connect 27 0 0 0;
#X connect 28 0 21 0;
#X connect 29 0 28 1;
#X connect 30 0 38 0;
#X connect 31 0 9 0;
#X connect 31 0 5 0;
#X connect 32 0 6 0;
#X connect 33 0 35 0;
#X connect 34 0 35 0;
#X connect 35 0 36 1;
#X connect 36 0 3 0;
#X connect 37 0 39 0;
#X connect 38 0 22 0;
#X connect 38 0 26 0;
#X connect 39 0 38 0;
#X connect 40 0 14 0;
#X connect 40 1 14 1;
#X connect 41 0 42 0;
#X connect 42 0 34 0;
#X connect 42 1 33 0;
#X connect 43 0 14 0;
#X connect 43 0 41 0;
#X connect 44 0 43 0;
