#N canvas 728 141 539 523 10;
#X obj 168 249 line~;
#X obj 64 362 osc~;
#X obj 64 449 dac~;
#X obj 62 133 random 12;
#X floatatom 62 185 5 0 0 0 - - -;
#X obj 62 99 bng 15 250 50 0 empty empty empty 17 7 0 10 -262144 -1
-1;
#X obj 62 160 + 60;
#X obj 64 334 mtof;
#X obj 168 193 pack 0 25;
#X obj 244 155 bang;
#X obj 244 177 delay 200;
#X msg 244 199 0 250;
#X text 148 167 on;
#X text 277 155 off;
#X obj 168 171 / 199;
#X msg 168 133 100;
#X obj 62 68 r bang;
#X obj 26 220 select 61 63 66 68 70;
#X obj 64 282 + 1;
#X msg 11 248 61;
#X msg 43 248 63;
#X msg 73 247 66;
#X msg 129 248 70;
#X msg 101 248 68;
#X obj 64 411 *~;
#X connect 0 0 24 1;
#X connect 1 0 24 0;
#X connect 3 0 6 0;
#X connect 4 0 17 0;
#X connect 5 0 3 0;
#X connect 5 0 15 0;
#X connect 6 0 4 0;
#X connect 7 0 1 0;
#X connect 8 0 0 0;
#X connect 9 0 10 0;
#X connect 10 0 11 0;
#X connect 11 0 0 0;
#X connect 14 0 8 0;
#X connect 15 0 14 0;
#X connect 15 0 9 0;
#X connect 16 0 5 0;
#X connect 17 0 19 0;
#X connect 17 1 20 0;
#X connect 17 2 21 0;
#X connect 17 3 23 0;
#X connect 17 4 22 0;
#X connect 17 5 7 0;
#X connect 18 0 7 0;
#X connect 19 0 18 0;
#X connect 20 0 18 0;
#X connect 21 0 18 0;
#X connect 22 0 18 0;
#X connect 23 0 18 0;
#X connect 24 0 2 0;
#X connect 24 0 2 1;
